<svg id="visual" viewBox="0 0 900 600" width="900" height="600" xmlns="http://www.w3.org/2000/svg" xmlns:xlink="http://www.w3.org/1999/xlink" version="1.1"><path d="M0 67L13.7 96C27.3 125 54.7 183 82 200C109.3 217 136.7 193 163.8 174C191 155 218 141 245.2 148C272.3 155 299.7 183 327 207C354.3 231 381.7 251 409 245C436.3 239 463.7 207 491 185C518.3 163 545.7 151 573 153C600.3 155 627.7 171 654.8 176C682 181 709 175 736.2 181C763.3 187 790.7 205 818 218C845.3 231 872.7 239 886.3 243L900 247L900 0L886.3 0C872.7 0 845.3 0 818 0C790.7 0 763.3 0 736.2 0C709 0 682 0 654.8 0C627.7 0 600.3 0 573 0C545.7 0 518.3 0 491 0C463.7 0 436.3 0 409 0C381.7 0 354.3 0 327 0C299.7 0 272.3 0 245.2 0C218 0 191 0 163.8 0C136.7 0 109.3 0 82 0C54.7 0 27.3 0 13.7 0L0 0Z" fill="#62496f"></path><path d="M0 139L13.7 164C27.3 189 54.7 239 82 253C109.3 267 136.7 245 163.8 232C191 219 218 215 245.2 225C272.3 235 299.7 259 327 283C354.3 307 381.7 331 409 332C436.3 333 463.7 311 491 290C518.3 269 545.7 249 573 251C600.3 253 627.7 277 654.8 287C682 297 709 293 736.2 298C763.3 303 790.7 317 818 327C845.3 337 872.7 343 886.3 346L900 349L900 245L886.3 241C872.7 237 845.3 229 818 216C790.7 203 763.3 185 736.2 179C709 173 682 179 654.8 174C627.7 169 600.3 153 573 151C545.7 149 518.3 161 491 183C463.7 205 436.3 237 409 243C381.7 249 354.3 229 327 205C299.7 181 272.3 153 245.2 146C218 139 191 153 163.8 172C136.7 191 109.3 215 82 198C54.7 181 27.3 123 13.7 94L0 65Z" fill="#4f385b"></path><path d="M0 241L13.7 262C27.3 283 54.7 325 82 337C109.3 349 136.7 331 163.8 319C191 307 218 301 245.2 313C272.3 325 299.7 355 327 371C354.3 387 381.7 389 409 390C436.3 391 463.7 391 491 372C518.3 353 545.7 315 573 307C600.3 299 627.7 321 654.8 329C682 337 709 331 736.2 346C763.3 361 790.7 397 818 411C845.3 425 872.7 417 886.3 413L900 409L900 347L886.3 344C872.7 341 845.3 335 818 325C790.7 315 763.3 301 736.2 296C709 291 682 295 654.8 285C627.7 275 600.3 251 573 249C545.7 247 518.3 267 491 288C463.7 309 436.3 331 409 330C381.7 329 354.3 305 327 281C299.7 257 272.3 233 245.2 223C218 213 191 217 163.8 230C136.7 243 109.3 265 82 251C54.7 237 27.3 187 13.7 162L0 137Z" fill="#3d2848"></path><path d="M0 451L13.7 455C27.3 459 54.7 467 82 472C109.3 477 136.7 479 163.8 475C191 471 218 461 245.2 468C272.3 475 299.7 499 327 509C354.3 519 381.7 515 409 512C436.3 509 463.7 507 491 495C518.3 483 545.7 461 573 452C600.3 443 627.7 447 654.8 450C682 453 709 455 736.2 469C763.3 483 790.7 509 818 520C845.3 531 872.7 527 886.3 525L900 523L900 407L886.3 411C872.7 415 845.3 423 818 409C790.7 395 763.3 359 736.2 344C709 329 682 335 654.8 327C627.7 319 600.3 297 573 305C545.7 313 518.3 351 491 370C463.7 389 436.3 389 409 388C381.7 387 354.3 385 327 369C299.7 353 272.3 323 245.2 311C218 299 191 305 163.8 317C136.7 329 109.3 347 82 335C54.7 323 27.3 281 13.7 260L0 239Z" fill="#35233e"></path><path d="M0 601L13.7 601C27.3 601 54.7 601 82 601C109.3 601 136.7 601 163.8 601C191 601 218 601 245.2 601C272.3 601 299.7 601 327 601C354.3 601 381.7 601 409 601C436.3 601 463.7 601 491 601C518.3 601 545.7 601 573 601C600.3 601 627.7 601 654.8 601C682 601 709 601 736.2 601C763.3 601 790.7 601 818 601C845.3 601 872.7 601 886.3 601L900 601L900 521L886.3 523C872.7 525 845.3 529 818 518C790.7 507 763.3 481 736.2 467C709 453 682 451 654.8 448C627.7 445 600.3 441 573 450C545.7 459 518.3 481 491 493C463.7 505 436.3 507 409 510C381.7 513 354.3 517 327 507C299.7 497 272.3 473 245.2 466C218 459 191 469 163.8 473C136.7 477 109.3 475 82 470C54.7 465 27.3 457 13.7 453L0 449Z" fill="#2d1f35"></path></svg>